<?xml version="1.0" standalone="no"?>
<!DOCTYPE svg PUBLIC "-//W3C//DTD SVG 20010904//EN"
 "http://www.w3.org/TR/2001/REC-SVG-20010904/DTD/svg10.dtd">
<svg version="1.0" xmlns="http://www.w3.org/2000/svg"
 width="1200.000000pt" height="1200.000000pt" viewBox="0 0 1200.000000 1200.000000"
 preserveAspectRatio="xMidYMid meet">

<g transform="translate(0.000000,1200.000000) scale(0.100000,-0.100000)"
fill="#AB0008" stroke="none">
<path d="M1540 11769 c-480 -50 -915 -344 -1152 -779 -85 -156 -148 -366 -168
-559 -14 -144 -14 -8758 0 -8902 48 -480 314 -895 731 -1144 170 -101 395
-173 603 -194 155 -16 8667 -16 8822 0 493 49 926 338 1166 779 85 156 148
366 168 559 14 144 14 8758 0 8902 -35 351 -182 661 -430 909 -248 248 -558
395 -909 430 -129 13 -8705 12 -8831 -1z m4485 -1427 l52 -157 171 -3 c95 -1
172 -6 172 -11 0 -4 -26 -25 -57 -47 -31 -21 -83 -59 -115 -84 -31 -25 -67
-52 -79 -60 l-21 -15 51 -159 c28 -88 49 -161 47 -163 -5 -5 -46 22 -175 115
-55 39 -103 72 -107 72 -4 0 -25 -14 -48 -31 -220 -164 -247 -181 -231 -141
15 36 88 268 92 292 3 19 -2 29 -24 42 -15 9 -62 42 -103 73 -41 31 -90 65
-107 77 -18 11 -33 24 -33 29 0 5 78 10 173 11 l172 3 49 150 c27 83 50 156
53 164 6 25 16 4 68 -157z m33 -989 c14 -10 35 -32 46 -47 21 -27 21 -38 24
-777 l2 -749 -165 0 -165 0 0 730 c0 785 -1 770 51 820 56 53 152 64 207 23z
m372 -295 c18 -13 43 -36 54 -51 21 -28 21 -37 24 -628 l2 -599 -165 0 -165 0
2 598 3 599 27 35 c52 69 153 90 218 46z m-750 -10 c18 -13 41 -39 51 -58 18
-33 19 -70 19 -627 l0 -593 -165 0 -165 0 0 583 c0 546 2 585 19 623 17 38 54
73 91 87 39 15 118 7 150 -15z m-2460 -999 c170 -26 365 -119 488 -234 85 -79
137 -153 177 -252 33 -83 34 -114 4 -184 -60 -145 -186 -285 -355 -398 -120
-81 -207 -124 -324 -162 -107 -34 -114 -52 -41 -99 112 -71 200 -204 236 -357
30 -123 -4 -249 -89 -332 -24 -23 -68 -52 -101 -65 l-58 -24 55 -11 c173 -36
374 -195 428 -339 54 -142 -5 -359 -125 -460 l-32 -27 107 -368 c59 -203 115
-388 125 -412 45 -119 186 -167 395 -135 216 34 528 193 692 354 44 42 73 63
83 60 23 -9 19 -18 -33 -81 -223 -268 -635 -510 -966 -568 -128 -22 -183 -20
-243 10 -92 46 -110 85 -283 616 l-121 368 -62 -24 c-167 -62 -448 -56 -473
10 -4 8 -27 30 -53 48 -65 47 -85 92 -78 174 12 154 156 326 341 408 71 32 79
31 40 -3 -44 -38 -64 -74 -66 -113 -2 -67 31 -97 130 -118 164 -34 237 8 229
133 -3 57 -6 62 -54 105 -87 80 -193 135 -416 216 -72 26 -105 90 -82 159 17
48 34 66 122 133 76 57 155 138 203 208 36 52 41 119 13 154 -27 32 -85 39
-112 12 -28 -28 -27 -50 4 -85 14 -16 25 -31 25 -34 0 -2 -14 -31 -32 -64 -32
-60 -82 -109 -134 -129 -29 -11 -198 -38 -241 -39 l-22 0 24 36 c29 43 30 55
9 165 -21 113 -15 229 15 289 13 25 44 64 69 88 l45 42 -29 0 c-31 0 -37 -4
128 89 45 26 50 31 33 37 -11 4 -92 38 -180 75 -180 76 -255 128 -333 233 -91
124 -124 239 -110 393 14 161 114 311 257 387 216 113 499 156 771 115z m6245
-849 c0 -25 -1 -25 -115 -32 -449 -29 -1545 -155 -1636 -189 -28 -11 -69 -35
-92 -55 -85 -72 -142 -249 -142 -438 l0 -91 33 -14 c17 -8 62 -44 98 -80 75
-76 125 -167 163 -301 67 -233 71 -377 16 -543 -63 -188 -143 -283 -303 -362
l-98 -48 -42 29 c-23 16 -72 65 -109 109 -126 150 -175 258 -165 366 6 70 37
130 124 239 36 45 64 82 62 84 -2 2 -28 16 -58 32 -69 37 -137 103 -161 157
-25 55 -26 148 -1 202 10 22 35 55 56 74 l38 33 1 162 c1 159 1 162 32 227 56
117 185 223 364 296 61 26 107 35 250 52 341 40 405 46 755 67 55 3 253 16
440 29 187 12 374 22 415 21 73 -1 75 -2 75 -26z m-2764 -862 c132 -262 217
-500 245 -689 19 -134 15 -200 -21 -296 -86 -228 -260 -311 -446 -212 -66 35
-171 141 -214 213 -23 39 -175 437 -215 565 -27 83 -87 122 -136 87 -17 -13
-19 -27 -18 -133 1 -96 6 -135 28 -208 56 -190 154 -335 278 -412 71 -44 79
-38 -115 -88 l-139 -36 -37 24 c-50 33 -105 118 -153 236 -63 154 -89 268 -95
411 -8 194 23 314 103 395 57 59 120 87 210 93 129 8 215 -39 292 -161 57 -90
99 -191 123 -298 49 -214 82 -303 145 -390 83 -114 184 -94 184 36 0 70 -38
170 -182 478 -116 251 -129 283 -114 292 10 5 65 42 124 82 59 39 110 72 114
72 4 1 22 -27 39 -61z m-1922 -36 c50 -40 121 -130 151 -191 27 -55 40 -64 40
-28 1 36 35 101 69 130 58 49 162 62 218 27 91 -55 192 -274 278 -605 43 -162
83 -356 87 -414 l3 -44 -109 -44 c-60 -24 -112 -41 -116 -36 -4 4 -19 87 -34
183 -63 406 -132 612 -219 660 -27 14 -29 14 -48 -9 -37 -45 -26 -133 67 -540
24 -106 44 -199 44 -206 0 -12 -196 -103 -204 -94 -2 2 -13 65 -25 139 -25
151 -70 351 -102 450 -51 155 -138 280 -197 280 -59 0 -112 -107 -112 -225 0
-138 57 -251 186 -374 l93 -88 -56 -84 c-30 -46 -59 -88 -63 -92 -19 -21 -149
73 -217 155 -82 100 -133 228 -158 395 -49 324 26 582 192 655 101 44 177 45
232 0z m3543 9 c48 -31 126 -128 170 -213 l26 -52 7 40 c12 68 49 119 107 148
130 65 221 13 314 -176 32 -68 45 -86 50 -72 40 125 128 235 226 285 81 41
141 40 236 -6 174 -83 264 -247 321 -585 22 -133 44 -400 39 -479 l-3 -55
-174 -53 c-95 -30 -176 -52 -178 -49 -3 2 -11 96 -18 208 -8 112 -17 244 -20
293 -16 233 -72 433 -127 451 -31 9 -69 -39 -103 -128 -31 -85 -42 -133 -60
-260 -11 -83 -11 -106 1 -158 8 -33 22 -108 33 -165 l18 -104 -71 -30 c-125
-52 -157 -64 -161 -60 -2 2 -17 90 -34 194 -62 374 -113 545 -187 622 -52 55
-73 54 -93 -4 -18 -52 -4 -146 73 -483 30 -129 52 -238 50 -241 -6 -11 -195
-91 -201 -86 -2 3 -15 68 -28 144 -64 374 -142 602 -234 686 -49 44 -78 47
-114 9 -79 -83 -82 -269 -6 -412 36 -69 119 -163 178 -204 23 -16 41 -32 41
-37 0 -6 -100 -168 -117 -189 -8 -9 -97 47 -153 97 -153 138 -230 353 -231
642 -1 192 33 316 113 406 49 57 149 100 239 104 14 1 46 -12 71 -28z m-4471
-1433 c88 -30 159 -107 159 -173 0 -56 -47 -148 -104 -204 l-45 -44 -18 21
c-10 12 -49 35 -88 50 -77 32 -75 27 -55 126 19 98 -2 151 -54 138 -19 -5 -20
-4 -6 14 23 29 42 43 85 64 46 23 78 25 126 8z m5454 -887 c127 -26 341 -85
386 -105 19 -9 25 -14 14 -11 -154 45 -525 91 -625 78 -47 -6 -100 -28 -112
-47 -12 -18 -9 -65 7 -95 15 -30 33 -41 65 -41 10 0 26 -7 35 -17 10 -9 34
-17 58 -17 38 -1 44 -5 59 -36 10 -19 18 -52 18 -72 0 -21 5 -38 10 -38 6 0
10 9 10 20 0 29 59 91 107 112 23 10 77 21 121 25 66 5 85 2 124 -15 26 -11
52 -29 59 -40 12 -19 13 -19 35 8 33 38 75 53 134 48 103 -10 120 -51 120
-278 0 -140 2 -170 14 -170 12 0 15 33 16 195 0 123 5 205 12 220 14 32 51 42
81 23 18 -12 26 -12 47 -1 14 7 52 13 85 13 75 0 130 -29 162 -85 22 -39 23
-45 23 -390 0 -216 4 -365 11 -388 10 -38 10 -39 52 -32 23 4 101 26 172 50
72 24 121 37 110 29 -11 -8 -20 -20 -20 -25 0 -6 -40 -35 -88 -64 -107 -65
-167 -80 -283 -70 -99 8 -137 29 -173 95 -21 37 -25 58 -25 126 l0 82 -30 6
c-17 4 -48 6 -68 6 -52 -1 -68 26 -68 117 0 58 -3 73 -15 73 -22 0 -22 -166 0
-191 15 -15 13 -17 -18 -23 -60 -11 -128 8 -164 48 -29 31 -33 42 -33 91 0 46
4 60 25 80 13 14 29 25 35 25 16 0 13 318 -3 350 -16 31 -41 28 -79 -8 -24
-22 -28 -34 -28 -78 0 -45 -4 -57 -31 -83 -17 -17 -42 -34 -55 -37 -24 -6 -24
-6 8 -23 58 -29 73 -62 73 -155 -1 -91 -17 -132 -68 -170 -25 -18 -42 -21
-130 -21 -89 0 -107 3 -139 23 -51 31 -78 92 -77 168 1 57 1 58 9 19 21 -102
69 -155 143 -155 86 0 126 46 134 155 5 68 4 75 -19 98 -17 17 -42 28 -74 32
-27 4 -67 11 -89 15 -34 7 -36 8 -11 9 16 1 56 8 88 17 96 27 128 86 93 169
-39 94 -228 63 -296 -49 -11 -18 -19 -25 -20 -16 -1 8 -5 -9 -9 -38 -15 -100
-71 -137 -106 -69 -24 46 -30 161 -10 217 8 24 14 45 13 46 -1 1 -17 -1 -34
-3 l-33 -5 0 -270 c0 -282 -3 -301 -46 -339 -46 -41 -139 -31 -188 20 l-28 30
-25 -30 c-33 -38 -84 -52 -177 -47 l-76 3 0 -30 c1 -121 134 -209 312 -207 91
0 160 21 210 62 35 29 68 84 68 113 0 28 -29 47 -63 41 -24 -4 -28 -3 -17 5
22 16 76 13 90 -4 7 -9 13 -36 12 -61 -1 -71 -46 -130 -132 -174 -79 -40 -150
-53 -275 -54 -143 0 -202 15 -248 62 -64 66 -71 94 -74 302 -2 166 -1 181 11
144 42 -125 119 -174 205 -130 59 31 66 54 69 250 5 206 -3 248 -48 271 -63
33 -187 2 -245 -61 l-25 -27 0 -214 c0 -177 -3 -221 -16 -249 -18 -37 -55 -54
-77 -35 -10 8 -29 8 -68 -1 -135 -28 -237 32 -255 149 -4 27 -11 43 -20 43
-11 0 -14 -19 -14 -85 0 -72 3 -87 20 -103 l21 -19 -32 -7 c-38 -7 -105 2
-141 21 -15 7 -37 32 -49 55 -29 57 -21 114 20 149 l31 25 0 177 c0 155 -2
177 -17 185 -43 25 -104 -46 -101 -117 2 -49 -18 -75 -77 -102 -30 -14 -35
-19 -18 -19 13 0 37 -13 55 -29 32 -28 33 -32 36 -118 3 -76 0 -94 -20 -133
-31 -61 -71 -80 -168 -80 -154 1 -212 48 -224 181 -7 67 -4 65 30 -26 38 -98
139 -127 212 -61 37 34 37 35 40 124 4 88 3 91 -22 107 -21 14 -107 31 -181
36 -11 0 12 7 51 14 124 22 154 46 154 122 0 47 -4 59 -29 84 -24 23 -38 29
-74 29 -85 0 -177 -47 -204 -104 l-14 -31 5 38 c11 81 76 131 195 150 92 14
154 3 197 -35 l35 -31 34 33 c64 62 183 51 220 -20 12 -23 15 -68 15 -208 0
-146 3 -181 14 -185 12 -5 15 22 18 162 3 162 4 169 30 208 14 22 42 47 61 56
41 20 158 23 190 5 12 -6 40 -12 62 -12 37 -1 42 -4 61 -42 l21 -42 17 28 c40
68 218 111 311 76 53 -21 90 -62 105 -117 6 -23 10 -120 9 -230 -1 -183 -1
-191 21 -214 12 -13 30 -25 40 -28 43 -11 45 -1 50 285 3 150 9 281 13 290 7
13 0 22 -30 41 -50 32 -75 70 -75 114 0 48 28 83 93 116 53 28 57 29 174 24
66 -3 165 -14 220 -26z m978 -92 c28 -13 43 -41 31 -60 -33 -55 -259 -50 -281
6 -8 22 26 55 68 66 43 10 148 4 182 -12z m251 -198 c27 -47 28 -179 2 -233
-20 -43 -52 -50 -79 -20 -41 45 -45 198 -6 261 25 42 56 38 83 -8z m-1342
-341 c13 -25 18 -59 18 -115 0 -98 -21 -148 -62 -153 -43 -5 -63 42 -63 153 0
111 20 158 63 153 19 -2 32 -13 44 -38z m1331 22 c42 -46 42 -228 1 -273 -59
-66 -119 57 -95 194 16 88 56 122 94 79z"/>
<path d="M2667 7870 c-93 -24 -172 -92 -195 -169 -7 -21 -12 -73 -12 -114 0
-177 96 -302 376 -489 61 -41 191 -98 223 -98 29 0 149 106 206 182 80 106 90
132 90 228 0 74 -4 93 -29 145 -55 113 -213 239 -372 297 -66 24 -223 34 -287
18z"/>
<path d="M7230 6201 c0 -10 12 -36 26 -57 39 -59 184 -203 226 -224 20 -11 46
-31 57 -46 12 -15 21 -21 21 -14 0 29 -64 200 -93 248 -31 52 -33 53 -124 82
-110 35 -113 36 -113 11z"/>
<path d="M7435 5769 c-40 -22 -111 -107 -123 -146 -17 -55 -15 -149 4 -240 23
-114 82 -221 115 -208 40 15 117 182 143 307 25 121 22 172 -15 230 -43 67
-77 82 -124 57z"/>
<path d="M10097 3713 c-11 -3 -16 -10 -13 -20 3 -8 6 -77 6 -152 l0 -138 24 4
c18 4 29 -2 41 -20 14 -22 16 -48 13 -156 -3 -129 -3 -131 19 -131 12 0 28 -3
37 -6 14 -6 16 21 16 252 0 241 -1 260 -21 301 -28 58 -69 80 -122 66z"/>
<path d="M8118 3681 c-20 -16 -58 -93 -58 -117 0 -1 9 0 20 3 11 3 31 -2 45
-11 25 -16 25 -19 25 -147 0 -72 -5 -139 -10 -150 -7 -12 -21 -19 -40 -19 -36
0 -39 -20 -10 -67 24 -40 52 -55 93 -51 l32 3 0 285 0 285 -36 3 c-24 2 -43
-4 -61 -17z"/>
<path d="M9137 3654 c-11 -11 -8 -142 3 -149 16 -10 32 46 27 93 -5 44 -18 68
-30 56z"/>
<path d="M8062 3401 c4 -173 23 -177 23 -4 0 94 -3 127 -13 131 -10 3 -12 -24
-10 -127z"/>
<path d="M10088 3254 c-3 -77 -3 -141 -1 -144 14 -16 23 41 23 140 0 168 -17
170 -22 4z"/>
<path d="M7763 3220 c0 -25 2 -35 4 -22 2 12 2 32 0 45 -2 12 -4 2 -4 -23z"/>
<path d="M9784 3235 c-3 -13 -1 -37 4 -52 9 -25 10 -23 11 25 1 56 -5 67 -15
27z"/>
<path d="M10150 3874 c-8 -3 -22 -8 -30 -10 -27 -9 11 -24 60 -24 45 0 80 13
63 23 -14 9 -77 16 -93 11z"/>
<path d="M10476 3644 c-10 -25 -7 -117 4 -134 16 -24 30 6 30 67 0 54 -7 83
-20 83 -4 0 -11 -7 -14 -16z"/>
<path d="M9137 3313 c-10 -10 -8 -126 3 -143 20 -31 39 71 24 128 -6 22 -15
27 -27 15z"/>
<path d="M10476 3304 c-12 -30 -6 -121 8 -133 18 -15 26 5 26 69 0 51 -7 80
-20 80 -4 0 -11 -7 -14 -16z"/>
</g>
</svg>
